<svg xmlns="http://www.w3.org/2000/svg" viewBox="0 0 720 430" role="img" aria-labelledby="title desc">
  <title id="title">MERINI DIGITAL</title>
  <desc id="desc">MERINI DIGITAL monogram with a cyan lightning mark.</desc>
  <defs>
    <linearGradient id="dark" x1="0" y1="0" x2="1" y2="1">
      <stop offset="0" stop-color="#111111"/>
      <stop offset="0.55" stop-color="#050505"/>
      <stop offset="1" stop-color="#2A2A2A"/>
    </linearGradient>
    <linearGradient id="cyan" x1="0" y1="1" x2="1" y2="0">
      <stop offset="0" stop-color="#12B8C4"/>
      <stop offset="0.55" stop-color="#35DCE7"/>
      <stop offset="1" stop-color="#14B8D4"/>
    </linearGradient>
  </defs>
  <g fill="url(#dark)">
    <path d="M105 42h64l92 128 92-128h64v220h-64V145l-92 125-92-125v117h-64z"/>
    <path d="M420 42h83c72 0 126 45 126 110s-54 110-126 110h-83zm64 57v106h19c37 0 63-20 63-53s-26-53-63-53z"/>
  </g>
  <path d="M405 18 318 177h43l-67 128 117-172h-43z" fill="url(#cyan)"/>
  <path d="M405 18 388 74" fill="none" stroke="#67F0F5" stroke-width="5" stroke-linecap="round" opacity=".7"/>
  <text x="360" y="345" text-anchor="middle" fill="#050505" font-family="Arial, Helvetica, sans-serif" font-size="76" font-weight="800" letter-spacing="3">MERINI</text>
  <text x="360" y="398" text-anchor="middle" fill="#050505" font-family="Arial, Helvetica, sans-serif" font-size="38" font-weight="500" letter-spacing="18">DIGITAL</text>
</svg>